<mxfile host="app.diagrams.net" agent="Mozilla/5.0 (Windows NT 10.0; Win64; x64; rv:138.0) Gecko/20100101 Firefox/138.0" version="27.0.3">
  <diagram name="Page-1" id="25buBSfRVbLmozTASeky">
    <mxGraphModel dx="1166" dy="976" grid="0" gridSize="10" guides="1" tooltips="1" connect="1" arrows="1" fold="1" page="0" pageScale="1" pageWidth="4681" pageHeight="3300" math="0" shadow="0">
      <root>
        <mxCell id="0" />
        <mxCell id="1" parent="0" />
        <mxCell id="w4t-J_91MO3C1HGHpQgH-26" value="Telefon" style="ellipse;whiteSpace=wrap;html=1;fillColor=#929EA7;strokeColor=#23445d;" vertex="1" parent="1">
          <mxGeometry x="-494" y="165.5" width="126" height="56" as="geometry" />
        </mxCell>
        <mxCell id="w4t-J_91MO3C1HGHpQgH-1" value="&lt;div&gt;Cég&lt;/div&gt;" style="rounded=0;whiteSpace=wrap;html=1;" vertex="1" parent="1">
          <mxGeometry x="193" y="148" width="120" height="60" as="geometry" />
        </mxCell>
        <mxCell id="w4t-J_91MO3C1HGHpQgH-2" value="Típus" style="ellipse;whiteSpace=wrap;html=1;" vertex="1" parent="1">
          <mxGeometry x="8" y="27" width="120" height="51" as="geometry" />
        </mxCell>
        <mxCell id="w4t-J_91MO3C1HGHpQgH-3" value="Név" style="ellipse;whiteSpace=wrap;html=1;" vertex="1" parent="1">
          <mxGeometry x="270" y="27" width="120" height="51" as="geometry" />
        </mxCell>
        <mxCell id="w4t-J_91MO3C1HGHpQgH-4" value="Cím" style="ellipse;whiteSpace=wrap;html=1;" vertex="1" parent="1">
          <mxGeometry x="139" y="27" width="120" height="51" as="geometry" />
        </mxCell>
        <mxCell id="w4t-J_91MO3C1HGHpQgH-5" value="város" style="ellipse;whiteSpace=wrap;html=1;" vertex="1" parent="1">
          <mxGeometry x="36" y="-82" width="120" height="51" as="geometry" />
        </mxCell>
        <mxCell id="w4t-J_91MO3C1HGHpQgH-6" value="utca" style="ellipse;whiteSpace=wrap;html=1;" vertex="1" parent="1">
          <mxGeometry x="162" y="-82" width="120" height="51" as="geometry" />
        </mxCell>
        <mxCell id="w4t-J_91MO3C1HGHpQgH-7" value="házszám" style="ellipse;whiteSpace=wrap;html=1;" vertex="1" parent="1">
          <mxGeometry x="291" y="-82" width="120" height="51" as="geometry" />
        </mxCell>
        <mxCell id="w4t-J_91MO3C1HGHpQgH-8" value="&lt;u&gt;Cid&lt;/u&gt;" style="ellipse;whiteSpace=wrap;html=1;" vertex="1" parent="1">
          <mxGeometry x="411" y="27" width="120" height="51" as="geometry" />
        </mxCell>
        <mxCell id="w4t-J_91MO3C1HGHpQgH-9" value="" style="endArrow=none;html=1;rounded=0;fontSize=12;startSize=8;endSize=8;curved=1;entryX=0.5;entryY=1;entryDx=0;entryDy=0;exitX=0.5;exitY=0;exitDx=0;exitDy=0;" edge="1" parent="1" source="w4t-J_91MO3C1HGHpQgH-1" target="w4t-J_91MO3C1HGHpQgH-8">
          <mxGeometry width="50" height="50" relative="1" as="geometry">
            <mxPoint x="318" y="225" as="sourcePoint" />
            <mxPoint x="368" y="175" as="targetPoint" />
          </mxGeometry>
        </mxCell>
        <mxCell id="w4t-J_91MO3C1HGHpQgH-10" value="" style="endArrow=none;html=1;rounded=0;fontSize=12;startSize=8;endSize=8;curved=1;entryX=0.5;entryY=1;entryDx=0;entryDy=0;exitX=0.5;exitY=0;exitDx=0;exitDy=0;" edge="1" parent="1" source="w4t-J_91MO3C1HGHpQgH-1" target="w4t-J_91MO3C1HGHpQgH-3">
          <mxGeometry width="50" height="50" relative="1" as="geometry">
            <mxPoint x="263" y="158" as="sourcePoint" />
            <mxPoint x="481" y="88" as="targetPoint" />
          </mxGeometry>
        </mxCell>
        <mxCell id="w4t-J_91MO3C1HGHpQgH-12" value="" style="endArrow=none;html=1;rounded=0;fontSize=12;startSize=8;endSize=8;curved=1;entryX=0.5;entryY=1;entryDx=0;entryDy=0;exitX=0.5;exitY=0;exitDx=0;exitDy=0;" edge="1" parent="1" source="w4t-J_91MO3C1HGHpQgH-1" target="w4t-J_91MO3C1HGHpQgH-4">
          <mxGeometry width="50" height="50" relative="1" as="geometry">
            <mxPoint x="273" y="168" as="sourcePoint" />
            <mxPoint x="491" y="98" as="targetPoint" />
          </mxGeometry>
        </mxCell>
        <mxCell id="w4t-J_91MO3C1HGHpQgH-13" value="" style="endArrow=none;html=1;rounded=0;fontSize=12;startSize=8;endSize=8;curved=1;entryX=0.5;entryY=1;entryDx=0;entryDy=0;exitX=0.5;exitY=0;exitDx=0;exitDy=0;" edge="1" parent="1" source="w4t-J_91MO3C1HGHpQgH-1" target="w4t-J_91MO3C1HGHpQgH-2">
          <mxGeometry width="50" height="50" relative="1" as="geometry">
            <mxPoint x="283" y="178" as="sourcePoint" />
            <mxPoint x="501" y="108" as="targetPoint" />
          </mxGeometry>
        </mxCell>
        <mxCell id="w4t-J_91MO3C1HGHpQgH-14" value="" style="endArrow=none;html=1;rounded=0;fontSize=12;startSize=8;endSize=8;curved=1;entryX=0.5;entryY=1;entryDx=0;entryDy=0;exitX=0.5;exitY=0;exitDx=0;exitDy=0;" edge="1" parent="1" source="w4t-J_91MO3C1HGHpQgH-4" target="w4t-J_91MO3C1HGHpQgH-7">
          <mxGeometry width="50" height="50" relative="1" as="geometry">
            <mxPoint x="293" y="188" as="sourcePoint" />
            <mxPoint x="511" y="118" as="targetPoint" />
          </mxGeometry>
        </mxCell>
        <mxCell id="w4t-J_91MO3C1HGHpQgH-15" value="" style="endArrow=none;html=1;rounded=0;fontSize=12;startSize=8;endSize=8;curved=1;entryX=0.5;entryY=1;entryDx=0;entryDy=0;exitX=0.5;exitY=0;exitDx=0;exitDy=0;" edge="1" parent="1" source="w4t-J_91MO3C1HGHpQgH-4" target="w4t-J_91MO3C1HGHpQgH-6">
          <mxGeometry width="50" height="50" relative="1" as="geometry">
            <mxPoint x="209" y="37" as="sourcePoint" />
            <mxPoint x="361" y="-21" as="targetPoint" />
          </mxGeometry>
        </mxCell>
        <mxCell id="w4t-J_91MO3C1HGHpQgH-16" value="" style="endArrow=none;html=1;rounded=0;fontSize=12;startSize=8;endSize=8;curved=1;entryX=0.5;entryY=1;entryDx=0;entryDy=0;exitX=0.5;exitY=0;exitDx=0;exitDy=0;" edge="1" parent="1" source="w4t-J_91MO3C1HGHpQgH-4" target="w4t-J_91MO3C1HGHpQgH-5">
          <mxGeometry width="50" height="50" relative="1" as="geometry">
            <mxPoint x="219" y="47" as="sourcePoint" />
            <mxPoint x="371" y="-11" as="targetPoint" />
          </mxGeometry>
        </mxCell>
        <mxCell id="w4t-J_91MO3C1HGHpQgH-17" value="s_f" style="rhombus;whiteSpace=wrap;html=1;" vertex="1" parent="1">
          <mxGeometry x="48" y="138" width="80" height="80" as="geometry" />
        </mxCell>
        <mxCell id="w4t-J_91MO3C1HGHpQgH-18" value="" style="endArrow=none;html=1;rounded=0;fontSize=12;startSize=8;endSize=8;curved=1;entryX=1;entryY=0.5;entryDx=0;entryDy=0;exitX=0;exitY=0.5;exitDx=0;exitDy=0;" edge="1" parent="1" source="w4t-J_91MO3C1HGHpQgH-1" target="w4t-J_91MO3C1HGHpQgH-17">
          <mxGeometry width="50" height="50" relative="1" as="geometry">
            <mxPoint x="30" y="225" as="sourcePoint" />
            <mxPoint x="80" y="175" as="targetPoint" />
          </mxGeometry>
        </mxCell>
        <mxCell id="w4t-J_91MO3C1HGHpQgH-19" value="Főfelügyelő" style="rounded=0;whiteSpace=wrap;html=1;" vertex="1" parent="1">
          <mxGeometry x="-293" y="146" width="120" height="60" as="geometry" />
        </mxCell>
        <mxCell id="w4t-J_91MO3C1HGHpQgH-20" value="" style="endArrow=none;html=1;rounded=0;fontSize=12;startSize=8;endSize=8;curved=1;exitX=1;exitY=0.5;exitDx=0;exitDy=0;entryX=0;entryY=0.5;entryDx=0;entryDy=0;" edge="1" parent="1" source="w4t-J_91MO3C1HGHpQgH-19" target="w4t-J_91MO3C1HGHpQgH-17">
          <mxGeometry width="50" height="50" relative="1" as="geometry">
            <mxPoint x="30" y="225" as="sourcePoint" />
            <mxPoint x="80" y="175" as="targetPoint" />
          </mxGeometry>
        </mxCell>
        <mxCell id="w4t-J_91MO3C1HGHpQgH-23" value="Név" style="ellipse;whiteSpace=wrap;html=1;" vertex="1" parent="1">
          <mxGeometry x="-488" y="95" width="120" height="51" as="geometry" />
        </mxCell>
        <mxCell id="w4t-J_91MO3C1HGHpQgH-24" value="Telefon" style="ellipse;whiteSpace=wrap;html=1;fillColor=#929EA7;strokeColor=#23445d;" vertex="1" parent="1">
          <mxGeometry x="-491" y="168" width="120" height="51" as="geometry" />
        </mxCell>
        <mxCell id="w4t-J_91MO3C1HGHpQgH-27" value="&lt;u&gt;Fid&lt;/u&gt;" style="ellipse;whiteSpace=wrap;html=1;" vertex="1" parent="1">
          <mxGeometry x="-488" y="246" width="120" height="51" as="geometry" />
        </mxCell>
        <mxCell id="w4t-J_91MO3C1HGHpQgH-28" value="" style="endArrow=none;html=1;rounded=0;fontSize=12;startSize=8;endSize=8;curved=1;exitX=1;exitY=0.5;exitDx=0;exitDy=0;entryX=0;entryY=0.5;entryDx=0;entryDy=0;" edge="1" parent="1" source="w4t-J_91MO3C1HGHpQgH-23" target="w4t-J_91MO3C1HGHpQgH-19">
          <mxGeometry width="50" height="50" relative="1" as="geometry">
            <mxPoint x="32" y="188" as="sourcePoint" />
            <mxPoint x="58" y="188" as="targetPoint" />
          </mxGeometry>
        </mxCell>
        <mxCell id="w4t-J_91MO3C1HGHpQgH-29" value="" style="endArrow=none;html=1;rounded=0;fontSize=12;startSize=8;endSize=8;curved=1;exitX=0;exitY=0.5;exitDx=0;exitDy=0;entryX=1;entryY=0.5;entryDx=0;entryDy=0;" edge="1" parent="1" source="w4t-J_91MO3C1HGHpQgH-19" target="w4t-J_91MO3C1HGHpQgH-26">
          <mxGeometry width="50" height="50" relative="1" as="geometry">
            <mxPoint x="-163" y="133" as="sourcePoint" />
            <mxPoint x="-165" y="196" as="targetPoint" />
          </mxGeometry>
        </mxCell>
        <mxCell id="w4t-J_91MO3C1HGHpQgH-30" value="" style="endArrow=none;html=1;rounded=0;fontSize=12;startSize=8;endSize=8;curved=1;exitX=0;exitY=0.5;exitDx=0;exitDy=0;entryX=1;entryY=0.5;entryDx=0;entryDy=0;" edge="1" parent="1" source="w4t-J_91MO3C1HGHpQgH-19" target="w4t-J_91MO3C1HGHpQgH-27">
          <mxGeometry width="50" height="50" relative="1" as="geometry">
            <mxPoint x="-88" y="188" as="sourcePoint" />
            <mxPoint x="-163" y="206" as="targetPoint" />
          </mxGeometry>
        </mxCell>
        <mxCell id="w4t-J_91MO3C1HGHpQgH-55" value="c_s" style="rhombus;whiteSpace=wrap;html=1;" vertex="1" parent="1">
          <mxGeometry x="213" y="233.5" width="80" height="80" as="geometry" />
        </mxCell>
        <mxCell id="w4t-J_91MO3C1HGHpQgH-56" value="" style="endArrow=none;html=1;rounded=0;fontSize=12;startSize=8;endSize=8;curved=1;entryX=0.5;entryY=0;entryDx=0;entryDy=0;exitX=0.5;exitY=1;exitDx=0;exitDy=0;" edge="1" parent="1" target="w4t-J_91MO3C1HGHpQgH-55" source="w4t-J_91MO3C1HGHpQgH-1">
          <mxGeometry width="50" height="50" relative="1" as="geometry">
            <mxPoint x="257" y="210" as="sourcePoint" />
            <mxPoint x="258" y="396" as="targetPoint" />
          </mxGeometry>
        </mxCell>
        <mxCell id="w4t-J_91MO3C1HGHpQgH-57" value="Tár" style="rounded=0;whiteSpace=wrap;html=1;" vertex="1" parent="1">
          <mxGeometry x="193" y="354" width="120" height="60" as="geometry" />
        </mxCell>
        <mxCell id="w4t-J_91MO3C1HGHpQgH-58" value="" style="endArrow=none;html=1;rounded=0;fontSize=12;startSize=8;endSize=8;curved=1;exitX=0.5;exitY=0;exitDx=0;exitDy=0;entryX=0.5;entryY=1;entryDx=0;entryDy=0;" edge="1" parent="1" source="w4t-J_91MO3C1HGHpQgH-57" target="w4t-J_91MO3C1HGHpQgH-55">
          <mxGeometry width="50" height="50" relative="1" as="geometry">
            <mxPoint x="208" y="446" as="sourcePoint" />
            <mxPoint x="258" y="396" as="targetPoint" />
          </mxGeometry>
        </mxCell>
        <mxCell id="w4t-J_91MO3C1HGHpQgH-59" value="Név" style="ellipse;whiteSpace=wrap;html=1;" vertex="1" parent="1">
          <mxGeometry x="64" y="466" width="120" height="51" as="geometry" />
        </mxCell>
        <mxCell id="w4t-J_91MO3C1HGHpQgH-60" value="polcszám" style="ellipse;whiteSpace=wrap;html=1;" vertex="1" parent="1">
          <mxGeometry x="193" y="464" width="120" height="51" as="geometry" />
        </mxCell>
        <mxCell id="w4t-J_91MO3C1HGHpQgH-61" value="&lt;u&gt;Sid&lt;/u&gt;" style="ellipse;whiteSpace=wrap;html=1;" vertex="1" parent="1">
          <mxGeometry x="458" y="459" width="120" height="51" as="geometry" />
        </mxCell>
        <mxCell id="w4t-J_91MO3C1HGHpQgH-62" value="" style="endArrow=none;html=1;rounded=0;fontSize=12;startSize=8;endSize=8;curved=1;exitX=0.5;exitY=0;exitDx=0;exitDy=0;entryX=0.5;entryY=1;entryDx=0;entryDy=0;" edge="1" parent="1" source="w4t-J_91MO3C1HGHpQgH-59" target="w4t-J_91MO3C1HGHpQgH-57">
          <mxGeometry width="50" height="50" relative="1" as="geometry">
            <mxPoint x="210" y="409" as="sourcePoint" />
            <mxPoint x="236" y="409" as="targetPoint" />
          </mxGeometry>
        </mxCell>
        <mxCell id="w4t-J_91MO3C1HGHpQgH-63" value="" style="endArrow=none;html=1;rounded=0;fontSize=12;startSize=8;endSize=8;curved=1;exitX=0.5;exitY=1;exitDx=0;exitDy=0;entryX=0.5;entryY=0;entryDx=0;entryDy=0;" edge="1" parent="1" source="w4t-J_91MO3C1HGHpQgH-57" target="w4t-J_91MO3C1HGHpQgH-60">
          <mxGeometry width="50" height="50" relative="1" as="geometry">
            <mxPoint x="15" y="354" as="sourcePoint" />
            <mxPoint x="5" y="417" as="targetPoint" />
          </mxGeometry>
        </mxCell>
        <mxCell id="w4t-J_91MO3C1HGHpQgH-64" value="" style="endArrow=none;html=1;rounded=0;fontSize=12;startSize=8;endSize=8;curved=1;exitX=0.5;exitY=1;exitDx=0;exitDy=0;entryX=0.5;entryY=0;entryDx=0;entryDy=0;" edge="1" parent="1" source="w4t-J_91MO3C1HGHpQgH-57" target="w4t-J_91MO3C1HGHpQgH-61">
          <mxGeometry width="50" height="50" relative="1" as="geometry">
            <mxPoint x="90" y="409" as="sourcePoint" />
            <mxPoint x="15" y="427" as="targetPoint" />
          </mxGeometry>
        </mxCell>
        <mxCell id="w4t-J_91MO3C1HGHpQgH-66" value="érkezésidátum" style="ellipse;whiteSpace=wrap;html=1;" vertex="1" parent="1">
          <mxGeometry x="329" y="464" width="120" height="52" as="geometry" />
        </mxCell>
        <mxCell id="w4t-J_91MO3C1HGHpQgH-67" value="" style="endArrow=none;html=1;rounded=0;fontSize=12;startSize=8;endSize=8;curved=1;exitX=0.5;exitY=1;exitDx=0;exitDy=0;entryX=0.5;entryY=0;entryDx=0;entryDy=0;" edge="1" parent="1" target="w4t-J_91MO3C1HGHpQgH-66" source="w4t-J_91MO3C1HGHpQgH-57">
          <mxGeometry width="50" height="50" relative="1" as="geometry">
            <mxPoint x="389" y="414" as="sourcePoint" />
            <mxPoint x="141" y="417" as="targetPoint" />
          </mxGeometry>
        </mxCell>
        <mxCell id="w4t-J_91MO3C1HGHpQgH-68" value="s_i" style="rhombus;whiteSpace=wrap;html=1;" vertex="1" parent="1">
          <mxGeometry x="357" y="138" width="80" height="80" as="geometry" />
        </mxCell>
        <mxCell id="w4t-J_91MO3C1HGHpQgH-69" value="" style="endArrow=none;html=1;rounded=0;fontSize=12;startSize=8;endSize=8;curved=1;entryX=0;entryY=0.5;entryDx=0;entryDy=0;exitX=1;exitY=0.5;exitDx=0;exitDy=0;" edge="1" parent="1" target="w4t-J_91MO3C1HGHpQgH-68" source="w4t-J_91MO3C1HGHpQgH-1">
          <mxGeometry width="50" height="50" relative="1" as="geometry">
            <mxPoint x="605" y="119.5" as="sourcePoint" />
            <mxPoint x="610" y="307.5" as="targetPoint" />
          </mxGeometry>
        </mxCell>
        <mxCell id="w4t-J_91MO3C1HGHpQgH-70" value="Termék" style="rounded=0;whiteSpace=wrap;html=1;" vertex="1" parent="1">
          <mxGeometry x="484" y="148" width="120" height="60" as="geometry" />
        </mxCell>
        <mxCell id="w4t-J_91MO3C1HGHpQgH-71" value="" style="endArrow=none;html=1;rounded=0;fontSize=12;startSize=8;endSize=8;curved=1;entryX=1;entryY=0.5;entryDx=0;entryDy=0;exitX=0;exitY=0.5;exitDx=0;exitDy=0;" edge="1" parent="1" source="w4t-J_91MO3C1HGHpQgH-70" target="w4t-J_91MO3C1HGHpQgH-68">
          <mxGeometry width="50" height="50" relative="1" as="geometry">
            <mxPoint x="560" y="357.5" as="sourcePoint" />
            <mxPoint x="610" y="307.5" as="targetPoint" />
          </mxGeometry>
        </mxCell>
        <mxCell id="w4t-J_91MO3C1HGHpQgH-72" value="név" style="ellipse;whiteSpace=wrap;html=1;" vertex="1" parent="1">
          <mxGeometry x="684" y="152.5" width="120" height="51" as="geometry" />
        </mxCell>
        <mxCell id="w4t-J_91MO3C1HGHpQgH-73" value="&lt;u&gt;Iid&lt;/u&gt;" style="ellipse;whiteSpace=wrap;html=1;" vertex="1" parent="1">
          <mxGeometry x="690" y="218" width="120" height="51" as="geometry" />
        </mxCell>
        <mxCell id="w4t-J_91MO3C1HGHpQgH-74" value="" style="endArrow=none;html=1;rounded=0;fontSize=12;startSize=8;endSize=8;curved=1;exitX=0;exitY=0.5;exitDx=0;exitDy=0;entryX=1;entryY=0.5;entryDx=0;entryDy=0;" edge="1" parent="1" target="w4t-J_91MO3C1HGHpQgH-70" source="w4t-J_91MO3C1HGHpQgH-81">
          <mxGeometry width="50" height="50" relative="1" as="geometry">
            <mxPoint x="476" y="377.5" as="sourcePoint" />
            <mxPoint x="588" y="320.5" as="targetPoint" />
          </mxGeometry>
        </mxCell>
        <mxCell id="w4t-J_91MO3C1HGHpQgH-75" value="" style="endArrow=none;html=1;rounded=0;fontSize=12;startSize=8;endSize=8;curved=1;exitX=1;exitY=0.5;exitDx=0;exitDy=0;entryX=0;entryY=0.5;entryDx=0;entryDy=0;" edge="1" parent="1" source="w4t-J_91MO3C1HGHpQgH-70" target="w4t-J_91MO3C1HGHpQgH-72">
          <mxGeometry width="50" height="50" relative="1" as="geometry">
            <mxPoint x="367" y="265.5" as="sourcePoint" />
            <mxPoint x="357" y="328.5" as="targetPoint" />
          </mxGeometry>
        </mxCell>
        <mxCell id="w4t-J_91MO3C1HGHpQgH-76" value="" style="endArrow=none;html=1;rounded=0;fontSize=12;startSize=8;endSize=8;curved=1;exitX=1;exitY=0.5;exitDx=0;exitDy=0;entryX=0;entryY=0.5;entryDx=0;entryDy=0;" edge="1" parent="1" source="w4t-J_91MO3C1HGHpQgH-70" target="w4t-J_91MO3C1HGHpQgH-73">
          <mxGeometry width="50" height="50" relative="1" as="geometry">
            <mxPoint x="442" y="320.5" as="sourcePoint" />
            <mxPoint x="367" y="338.5" as="targetPoint" />
          </mxGeometry>
        </mxCell>
        <mxCell id="w4t-J_91MO3C1HGHpQgH-77" value="kategória" style="ellipse;whiteSpace=wrap;html=1;" vertex="1" parent="1">
          <mxGeometry x="690" y="78" width="120" height="52" as="geometry" />
        </mxCell>
        <mxCell id="w4t-J_91MO3C1HGHpQgH-78" value="" style="endArrow=none;html=1;rounded=0;fontSize=12;startSize=8;endSize=8;curved=1;exitX=1;exitY=0.5;exitDx=0;exitDy=0;entryX=0;entryY=0.5;entryDx=0;entryDy=0;" edge="1" parent="1" source="w4t-J_91MO3C1HGHpQgH-70" target="w4t-J_91MO3C1HGHpQgH-77">
          <mxGeometry width="50" height="50" relative="1" as="geometry">
            <mxPoint x="741" y="325.5" as="sourcePoint" />
            <mxPoint x="493" y="328.5" as="targetPoint" />
          </mxGeometry>
        </mxCell>
        <mxCell id="w4t-J_91MO3C1HGHpQgH-81" value="menyiség" style="ellipse;whiteSpace=wrap;html=1;" vertex="1" parent="1">
          <mxGeometry x="690" y="280" width="120" height="51" as="geometry" />
        </mxCell>
        <mxCell id="w4t-J_91MO3C1HGHpQgH-82" value="" style="endArrow=none;html=1;rounded=0;fontSize=12;startSize=8;endSize=8;curved=1;exitX=0;exitY=0.5;exitDx=0;exitDy=0;entryX=1;entryY=0.5;entryDx=0;entryDy=0;" edge="1" parent="1" source="w4t-J_91MO3C1HGHpQgH-83" target="w4t-J_91MO3C1HGHpQgH-70">
          <mxGeometry width="50" height="50" relative="1" as="geometry">
            <mxPoint x="478" y="443.5" as="sourcePoint" />
            <mxPoint x="606" y="244" as="targetPoint" />
          </mxGeometry>
        </mxCell>
        <mxCell id="w4t-J_91MO3C1HGHpQgH-83" value="ár" style="ellipse;whiteSpace=wrap;html=1;" vertex="1" parent="1">
          <mxGeometry x="692" y="346" width="120" height="51" as="geometry" />
        </mxCell>
        <mxCell id="w4t-J_91MO3C1HGHpQgH-84" value="Rendelés" style="rhombus;whiteSpace=wrap;html=1;" vertex="1" parent="1">
          <mxGeometry x="-115" y="249" width="80" height="80" as="geometry" />
        </mxCell>
        <mxCell id="w4t-J_91MO3C1HGHpQgH-85" value="" style="endArrow=none;html=1;rounded=0;fontSize=12;startSize=8;endSize=8;curved=1;entryX=0.5;entryY=0;entryDx=0;entryDy=0;exitX=0.5;exitY=1;exitDx=0;exitDy=0;" edge="1" parent="1" source="w4t-J_91MO3C1HGHpQgH-1" target="w4t-J_91MO3C1HGHpQgH-84">
          <mxGeometry width="50" height="50" relative="1" as="geometry">
            <mxPoint x="203" y="188" as="sourcePoint" />
            <mxPoint x="138" y="188" as="targetPoint" />
          </mxGeometry>
        </mxCell>
        <mxCell id="w4t-J_91MO3C1HGHpQgH-86" value="menyiség" style="ellipse;whiteSpace=wrap;html=1;" vertex="1" parent="1">
          <mxGeometry x="-251" y="246" width="120" height="51" as="geometry" />
        </mxCell>
        <mxCell id="w4t-J_91MO3C1HGHpQgH-87" value="" style="endArrow=none;html=1;rounded=0;fontSize=12;startSize=8;endSize=8;curved=1;exitX=1;exitY=0.5;exitDx=0;exitDy=0;entryX=0;entryY=0.5;entryDx=0;entryDy=0;" edge="1" parent="1" source="w4t-J_91MO3C1HGHpQgH-86" target="w4t-J_91MO3C1HGHpQgH-84">
          <mxGeometry width="50" height="50" relative="1" as="geometry">
            <mxPoint x="10" y="274" as="sourcePoint" />
            <mxPoint x="-43" y="246" as="targetPoint" />
          </mxGeometry>
        </mxCell>
        <mxCell id="w4t-J_91MO3C1HGHpQgH-88" value="cím" style="ellipse;whiteSpace=wrap;html=1;" vertex="1" parent="1">
          <mxGeometry x="-251" y="307.5" width="120" height="51" as="geometry" />
        </mxCell>
        <mxCell id="w4t-J_91MO3C1HGHpQgH-89" value="" style="endArrow=none;html=1;rounded=0;fontSize=12;startSize=8;endSize=8;curved=1;exitX=1;exitY=0.5;exitDx=0;exitDy=0;entryX=0;entryY=0.5;entryDx=0;entryDy=0;" edge="1" parent="1" source="w4t-J_91MO3C1HGHpQgH-88" target="w4t-J_91MO3C1HGHpQgH-84">
          <mxGeometry width="50" height="50" relative="1" as="geometry">
            <mxPoint x="6" y="329" as="sourcePoint" />
            <mxPoint x="-1" y="294" as="targetPoint" />
          </mxGeometry>
        </mxCell>
        <mxCell id="w4t-J_91MO3C1HGHpQgH-90" value="Szállítás" style="rounded=0;whiteSpace=wrap;html=1;" vertex="1" parent="1">
          <mxGeometry x="-135" y="444" width="120" height="60" as="geometry" />
        </mxCell>
        <mxCell id="w4t-J_91MO3C1HGHpQgH-91" value="" style="endArrow=none;html=1;rounded=0;fontSize=12;startSize=8;endSize=8;curved=1;exitX=0.5;exitY=0;exitDx=0;exitDy=0;entryX=0.5;entryY=1;entryDx=0;entryDy=0;" edge="1" parent="1" source="w4t-J_91MO3C1HGHpQgH-90" target="w4t-J_91MO3C1HGHpQgH-84">
          <mxGeometry width="50" height="50" relative="1" as="geometry">
            <mxPoint x="-90" y="341" as="sourcePoint" />
            <mxPoint x="-74" y="297" as="targetPoint" />
          </mxGeometry>
        </mxCell>
        <mxCell id="w4t-J_91MO3C1HGHpQgH-92" value="&lt;u&gt;Did&lt;/u&gt;" style="ellipse;whiteSpace=wrap;html=1;" vertex="1" parent="1">
          <mxGeometry x="-269" y="580" width="120" height="51" as="geometry" />
        </mxCell>
        <mxCell id="w4t-J_91MO3C1HGHpQgH-93" value="erkezesidatum" style="ellipse;whiteSpace=wrap;html=1;" vertex="1" parent="1">
          <mxGeometry x="-2" y="580" width="120" height="51" as="geometry" />
        </mxCell>
        <mxCell id="w4t-J_91MO3C1HGHpQgH-94" value="statusz" style="ellipse;whiteSpace=wrap;html=1;" vertex="1" parent="1">
          <mxGeometry x="-132" y="580" width="120" height="51" as="geometry" />
        </mxCell>
        <mxCell id="w4t-J_91MO3C1HGHpQgH-95" value="" style="endArrow=none;html=1;rounded=0;fontSize=12;startSize=8;endSize=8;curved=1;exitX=0.5;exitY=1;exitDx=0;exitDy=0;entryX=0.5;entryY=0;entryDx=0;entryDy=0;" edge="1" parent="1" source="w4t-J_91MO3C1HGHpQgH-90" target="w4t-J_91MO3C1HGHpQgH-92">
          <mxGeometry width="50" height="50" relative="1" as="geometry">
            <mxPoint x="-65" y="454" as="sourcePoint" />
            <mxPoint x="-65" y="339" as="targetPoint" />
          </mxGeometry>
        </mxCell>
        <mxCell id="w4t-J_91MO3C1HGHpQgH-96" value="" style="endArrow=none;html=1;rounded=0;fontSize=12;startSize=8;endSize=8;curved=1;exitX=0.5;exitY=1;exitDx=0;exitDy=0;" edge="1" parent="1" source="w4t-J_91MO3C1HGHpQgH-90" target="w4t-J_91MO3C1HGHpQgH-94">
          <mxGeometry width="50" height="50" relative="1" as="geometry">
            <mxPoint x="-65" y="514" as="sourcePoint" />
            <mxPoint x="-199" y="590" as="targetPoint" />
          </mxGeometry>
        </mxCell>
        <mxCell id="w4t-J_91MO3C1HGHpQgH-97" value="" style="endArrow=none;html=1;rounded=0;fontSize=12;startSize=8;endSize=8;curved=1;exitX=0.5;exitY=1;exitDx=0;exitDy=0;entryX=0.5;entryY=0;entryDx=0;entryDy=0;" edge="1" parent="1" source="w4t-J_91MO3C1HGHpQgH-90" target="w4t-J_91MO3C1HGHpQgH-93">
          <mxGeometry width="50" height="50" relative="1" as="geometry">
            <mxPoint x="-65" y="514" as="sourcePoint" />
            <mxPoint x="-63" y="590" as="targetPoint" />
          </mxGeometry>
        </mxCell>
      </root>
    </mxGraphModel>
  </diagram>
</mxfile>
